<?xml version="1.0" standalone="no"?><!DOCTYPE svg PUBLIC "-//W3C//DTD SVG 1.1//EN" "http://www.w3.org/Graphics/SVG/1.1/DTD/svg11.dtd"><svg t="1718763848961" class="icon" viewBox="0 0 1024 1024" version="1.1" xmlns="http://www.w3.org/2000/svg" p-id="28005" xmlns:xlink="http://www.w3.org/1999/xlink" width="200" height="200"><path d="M768 981.333333a128 128 0 0 0 128-128V388.010667a170.666667 170.666667 0 0 0-46.762667-117.376l-165.504-174.677334A170.666667 170.666667 0 0 0 559.872 42.666667H256a128 128 0 0 0-128 128v682.666666a128 128 0 0 0 128 128h512z" fill="#F57C18" p-id="28006"></path><path d="M534.997333 530.773333l39.509334 16.042667-84.778667 208.896-39.509333-16.042667 84.778666-208.896z m-144.768 8.789334l30.208 30.208L350.165333 640l70.272 70.229333-30.208 30.208-85.333333-85.333333a21.333333 21.333333 0 0 1-2.432-27.221333l2.432-2.986667 85.333333-85.333333z m237.269334 0l85.333333 85.333333 2.474667 2.986667a21.333333 21.333333 0 0 1-2.474667 27.221333l-85.333333 85.333333-30.165334-30.208L667.605333 640 597.333333 569.770667l30.165334-30.208z" fill="#FFFFFF" p-id="28007"></path></svg>