<?xml version="1.0" standalone="no"?><!DOCTYPE svg PUBLIC "-//W3C//DTD SVG 1.1//EN" "http://www.w3.org/Graphics/SVG/1.1/DTD/svg11.dtd"><svg t="1718790141646" class="icon" viewBox="0 0 1024 1024" version="1.1" xmlns="http://www.w3.org/2000/svg" p-id="36347" xmlns:xlink="http://www.w3.org/1999/xlink" width="200" height="200"><path d="M693.248 512l169.984-169.984a51.2 51.2 0 0 0 0-69.632l-111.616-111.616a51.2 51.2 0 0 0-69.12 0L512 331.264 342.016 160.768A51.2 51.2 0 0 0 307.2 146.432a51.2 51.2 0 0 0-34.816 14.336L160.768 272.384a51.2 51.2 0 0 0 0 69.632L331.264 512l-122.368 122.368a35.84 35.84 0 0 0-6.656 8.704 27.648 27.648 0 0 0-3.584 6.656v3.072l-51.2 181.248a33.792 33.792 0 0 0 32.256 41.984h8.704l180.736-48.128a10.24 10.24 0 0 0 4.096 0 35.84 35.84 0 0 0 9.216-8.704 40.448 40.448 0 0 0 7.68-6.144L512 693.248l170.496 169.984a51.2 51.2 0 0 0 69.12 0l111.616-111.616a48.128 48.128 0 0 0 0-69.12zM716.8 198.656L825.856 307.2l-61.952 61.952-108.544-108.544zM198.656 307.2L307.2 198.656l66.048 65.536-36.352 36.352a26.624 26.624 0 0 0 0 36.352 26.112 26.112 0 0 0 36.352 0L409.6 300.544l66.56 66.56-108.544 108.544z m277.504 349.696l-102.4 102.4-17.408 17.408-29.184 8.192-27.648 7.168L204.8 819.2l25.088-93.696 7.68-27.648 8.192-28.672 17.408-17.408 102.4-102.4 180.736-180.736 73.216-71.68 108.544 108.544-71.168 70.656z m240.64 168.448l-168.96-168.448 108.544-108.544L721.408 614.4l-35.84 36.352a24.576 24.576 0 0 0 0 35.84 24.576 24.576 0 0 0 35.84 0l36.352-36.352 68.096 66.56z" p-id="36348"></path></svg>