<?xml version="1.0" standalone="no"?><!DOCTYPE svg PUBLIC "-//W3C//DTD SVG 1.1//EN" "http://www.w3.org/Graphics/SVG/1.1/DTD/svg11.dtd"><svg t="1718763425851" class="icon" viewBox="0 0 1024 1024" version="1.1" xmlns="http://www.w3.org/2000/svg" p-id="19968" xmlns:xlink="http://www.w3.org/1999/xlink" width="200" height="200"><path d="M872.2 359.8c-2.4-5.7-5-11.4-7.6-16.9 0 0 0-0.1-0.1-0.1-19.1-39.7-44.6-75.7-76.1-107.2-35.9-35.9-77.7-64.1-124.3-83.8C616 131.4 564.8 121 512 121s-104 10.3-152.2 30.7c-46.6 19.7-88.4 47.9-124.3 83.8-35.9 35.9-64.1 77.7-83.8 124.3C131.4 408 121 459.2 121 512s10.3 104 30.7 152.2c2.4 5.7 5 11.4 7.6 16.9 0 0 0 0.1 0.1 0.1 19.1 39.7 44.6 75.7 76.1 107.2 35.9 35.9 77.7 64.1 124.3 83.8C408 892.6 459.2 903 512 903s104-10.3 152.2-30.7c46.6-19.7 88.4-47.9 124.3-83.8 35.9-35.9 64.1-77.7 83.8-124.3C892.6 616 903 564.8 903 512s-10.4-104-30.8-152.2zM162.2 512c0-35.4 5.2-70 15.3-102.9h233.8c-0.4 0.3-0.8 0.7-1.1 1L184.6 635.7c-14.7-39-22.4-80.8-22.4-123.7z m246.9 0c0-56.7 46.2-102.9 102.9-102.9S614.9 455.3 614.9 512 568.7 614.9 512 614.9 409.1 568.7 409.1 512z m204.8 101.9l225.5-225.5c14.7 39 22.4 80.8 22.4 123.7 0 35.4-5.2 70-15.3 102.9H612.7c0.4-0.4 0.8-0.8 1.2-1.1z m145.5-349.3c25 25 45.8 53.2 61.9 83.6L656 513.5V193c38 17.2 73 41.3 103.4 71.6z m-144.5-87.1v233.8c-0.3-0.4-0.7-0.8-1-1.1L388.3 184.6c39-14.7 80.8-22.4 123.7-22.4 35.4 0 70 5.2 102.9 15.3z m-350.3 87.1c25-25 53.2-45.8 83.6-61.9L513.5 368H193c17.2-38 41.3-73 71.6-103.4z m0 494.8c-25-25-45.8-53.2-61.9-83.6L368 510.5V831c-38-17.2-73-41.3-103.4-71.6z m144.5 87.1V612.7c0.3 0.4 0.7 0.8 1 1.1l225.5 225.5c-39 14.7-80.8 22.4-123.7 22.4-35.3 0.1-69.9-5.1-102.8-15.2z m350.3-87.1c-25 25-53.2 45.8-83.6 61.9L510.5 656H831c-17.2 38-41.3 73-71.6 103.4z" fill="#11C664" p-id="19969"></path></svg>