<?xml version="1.0" standalone="no"?><!DOCTYPE svg PUBLIC "-//W3C//DTD SVG 1.1//EN" "http://www.w3.org/Graphics/SVG/1.1/DTD/svg11.dtd"><svg t="1718763410737" class="icon" viewBox="0 0 1024 1024" version="1.1" xmlns="http://www.w3.org/2000/svg" p-id="18985" xmlns:xlink="http://www.w3.org/1999/xlink" width="200" height="200"><path d="M506.242098 506.242098m-506.242098 0a506.242098 506.242098 0 1 0 1012.484197 0 506.242098 506.242098 0 1 0-1012.484197 0Z" fill="#3192F2" p-id="18986"></path><path d="M408.710295 784.232918a302.583607 302.583607 0 0 1-101.980328-67.819016c-118.011803-119.623344-118.011803-311.849967 0-431.490099 120.697705-111.297049 306.612459-111.297049 427.310164 0 118.011803 119.623344 118.011803 311.866754 0 431.490099a300.25023 300.25023 0 0 1-325.329836 67.819016zM520.393443 262.278295a240.002098 240.002098 0 0 0-170.638689 66.677508 244.081311 244.081311 0 0 0-58.384787 95.299148c-3.323803 12.204066 1.091148 17.961967 13.211279 17.290492 39.71777-1.51082 125.297311-2.753049 142.856393-3.659541a98.824393 98.824393 0 0 0 4.230295 134.244721 96.558164 96.558164 0 0 0 137.43423 0 98.824393 98.824393 0 0 0 4.230295-134.244721c17.559082 0.906492 103.138623 2.131934 142.856393 3.676328 12.103344 0.671475 16.518295-5.12 13.194492-17.307279a243.863082 243.863082 0 0 0-58.368-95.299148A240.018885 240.018885 0 0 0 520.393443 262.278295z m54.523803 185.495082a80.442754 80.442754 0 0 0-109.064394 0 78.394754 78.394754 0 0 0 0 110.121967 76.648918 76.648918 0 0 0 109.064394 0 78.394754 78.394754 0 0 0 0-110.121967z m-40.540328 83.816918a32.264393 32.264393 0 0 0-1.913705-58.586229c-7.738754-3.155934-16.417574-3.155934-24.139541 0a32.062951 32.062951 0 1 0 26.053246 58.586229z m36.091803 208.09023a240.220328 240.220328 0 0 0 120.546623-66.106755 243.913443 243.913443 0 0 0 66.694295-127.932852c3.239869-13.446295-2.484459-17.559082-12.506229-17.240131a288.684066 288.684066 0 0 0-59.761312 3.307016c-68.691934 13.09377-93.234361 46.550033-105.404852 123.618623-4.414951 28.017311-7.218361 60.768525-9.568525 84.421246v-0.067147z m-100.184131 0c-2.333377-23.652721-5.153574-56.403934-9.568524-84.404459-12.153705-77.06859-36.729705-110.541639-105.42164-123.618623a288.616918 288.616918 0 0 0-59.761311-3.323804c-10.02177-0.318951-15.746098 3.793836-12.489443 17.240131a243.712 243.712 0 0 0 66.694295 127.932853 240.086033 240.086033 0 0 0 120.529836 66.106754v0.067148z" fill="#FFFFFF" p-id="18987"></path></svg>