<?xml version="1.0" standalone="no"?><!DOCTYPE svg PUBLIC "-//W3C//DTD SVG 1.1//EN" "http://www.w3.org/Graphics/SVG/1.1/DTD/svg11.dtd"><svg t="1718785617114" class="icon" viewBox="0 0 1024 1024" version="1.1" xmlns="http://www.w3.org/2000/svg" p-id="35364" id="mx_n_1718785617115" xmlns:xlink="http://www.w3.org/1999/xlink" width="200" height="200"><path d="M896.672 773.12l-369.696 208.192v-162.176l230.336-126.144 139.36 80.096z m25.28-22.784V314.912l-135.296 77.728v279.872l135.296 77.824z m-797.12 22.784l369.696 208.192v-162.176l-230.336-126.144-139.36 80.096z m-25.28-22.784V314.912l135.296 77.728v279.872l-135.296 77.824zM115.36 286.72l379.168-213.568v156.8l-244.768 134.08-134.4-77.28z m790.784 0L526.976 73.152v156.8l244.768 134.08 134.4-77.28zM494.528 782.272l-227.264-124.384v-246.496l227.232 130.656v240.256z m32.448 0l227.232-124.384v-246.496l-227.232 130.656v240.256zM282.656 382.88l228.128-124.928 228.128 124.928-228.128 131.168-228.128-131.168z" fill="#8DD6F9" p-id="35365"></path></svg>